{"accessors" : [{"bufferView" : 0, "byteOffset" : 0, "componentType" : 5123, "count" : 33294, "type" : "SCALAR", "max" : [5730], "min" : [0]}, {"bufferView" : 1, "byteOffset" : 0, "componentType" : 5126, "count" : 5731, "type" : "VEC3", "max" : [0.399998992681503, 0.125, 0.397807985544205], "min" : [-0.399998992681503, -0.125, -0.397807985544205]}, {"bufferView" : 1, "byteOffset" : 12, "componentType" : 5126, "count" : 5731, "type" : "VEC3", "max" : [1.00000441074371, 1.00000441074371, 0.997576951980591], "min" : [-1.00000441074371, -1.00000441074371, -0.997576951980591]}, {"bufferView" : 0, "byteOffset" : 66588, "componentType" : 5123, "count" : 348, "type" : "SCALAR", "max" : [59], "min" : [0]}, {"bufferView" : 2, "byteOffset" : 0, "componentType" : 5126, "count" : 60, "type" : "VEC3", "max" : [0.159998998045921, -0.0749989971518517, 0.159123003482819], "min" : [-0.159998998045921, -0.125, -0.159123003482819]}], "asset" : {"generator" : "Aspose.3D 20.2.1", "version" : "2.0"}, "buffers" : [{"uri" : "checker.bin", "byteLength" : 205560}], "bufferViews" : [{"buffer" : 0, "byteOffset" : 0, "byteLength" : 67284, "target" : 34963}, {"buffer" : 0, "byteOffset" : 67288, "byteLength" : 137544, "byteStride" : 24, "target" : 34962}, {"buffer" : 0, "byteOffset" : 204836, "byteLength" : 720, "byteStride" : 12, "target" : 34962}], "meshes" : [{"primitives" : [{"attributes" : {"POSITION" : 1, "NORMAL" : 2}, "indices" : 0, "material": 0, "mode" : 4}]}, {"primitives" : [{"attributes" : {"POSITION" : 4}, "indices" : 3, "material": 1, "mode" : 4}]}], "nodes" : [{"mesh" : 0, "name" : "outer"}, {"mesh" : 1, "name" : "inner"}], "scene" : 0, "scenes" : [{"nodes" : [0, 1]}], "materials": [{}, {"pbrMetallicRoughness": {"baseColorFactor": [1,0,0,1]}}]}